<?xml version="1.0" standalone="no"?>
<!DOCTYPE svg PUBLIC "-//W3C//DTD SVG 1.1//EN" "http://www.w3.org/Graphics/SVG/1.1/DTD/svg11.dtd">
<svg xmlns="http://www.w3.org/2000/svg">
<defs >
<font id="NanumGothicCoding" horiz-adv-x="500" ><font-face
    font-family="NanumGothicCoding"
    units-per-em="1000"
    panose-1="2 13 0 9 0 0 0 0 0 0"
    ascent="800"
    descent="-200"
    alphabetic="0" />
<glyph unicode=" " />
<glyph unicode="!" d="M298 145Q297 143 297 142T296 140Q294 138 281 138H207Q203 138 203 140Q200 143 200 157L186 615Q185 636 188 640T205 644H294Q308 644 310 640T312 615L298 157V145ZM249 -63Q219 -63 199 -43T179 7Q179 36 199 57T249 78Q279 78 299
57T320 7Q320 -22 300 -42T249 -63Z" />
<glyph unicode="&quot;" d="M299 470Q286 470 286 482V693Q286 705 299 705H371Q383 705 383 693V482Q383 470 371 470H299ZM128 470Q116 470 116 482V693Q116 705 128 705H200Q213 705 213 693V482Q213 470 200 470H128Z" />
<glyph unicode="#" d="M392 380L373 236H429Q444 236 447 234T451 217V162Q451 148 448 146T429 143H360L337 -24Q335 -35 333 -37T317 -39H254Q242 -39 240 -37T239 -24L262 143H200L178 -22Q176 -35 172 -37T154 -39H104Q84 -39 81 -37T79 -22L102 143H35Q20
143 17 145T14 160V218Q14 231 17 233T35 236H115L136 380H69Q53 380 51 383T48 400V454Q48 468 50 471T69 474H148L172 640Q174 651 176 653T191 655H253Q265 655 267 651T268 637L246 474H308L331 638Q333 651 336 653T355 655H404Q424 655 427 652T428 635L406
474H465Q479 474 482 472T486 456V399Q486 386 483 383T465 380H392ZM213 236H275L294 380H233L213 236Z" />
<glyph unicode="$" d="M400 -1Q380 -20 355 -34T298 -58V-130Q298 -141 287 -141H215Q204 -141 204 -130V-68Q161 -66 121 -57T64 -40Q50 -33 47 -31T46 -18L53 59Q54 66 57 67T71 64Q80 60 94 56T126 47T164 40T204 37V273Q120 323 82 367T43 469Q43 500 54 528T87
581T137 623T204 649V718Q204 722 207 725T215 729H287Q291 729 294 726T298 718V656Q335 654 361 648T407 635Q418 632 420 628T420 618L407 551Q406 541 402 538T387 537Q368 544 345 549T298 557V334Q345 304 376 280T424 233T449 187T456 137Q456 60 400 -1ZM150
466Q150 449 161 430T204 390V544Q173 530 162 508T150 466ZM350 129Q350 158 337 177T298 215V55Q323 66 336 87T350 129Z" />
<glyph unicode="%" d="M51 142L21 187Q14 197 15 203T26 215L413 469Q428 481 439 465L470 418Q481 402 464 391L78 137Q70 131 64 131T51 142ZM107 547Q107 512 124 495T170 477Q199 477 216 494T233 547Q233 582 216 600T170 618Q141 618 124 600T107 547ZM26
548Q26 618 66 660T170 703Q234 703 274 661T314 548Q314 478 274 436T170 394Q106 394 66 436T26 548ZM272 58Q272 23 289 6T335 -12Q364 -12 381 5T398 58Q398 93 381 111T335 129Q306 129 289 111T272 58ZM191 59Q191 129 231 171T335 214Q399 214 439 172T479
59Q479 -11 439 -53T335 -95Q271 -95 231 -53T191 59Z" />
<glyph unicode="&amp;" d="M414 -45Q406 -45 402 -44T392 -36L352 20Q287 -60 195 -60Q161 -60 128 -47T70 -9T30 54T14 144Q14 212 43 261T123 345Q102 379 86 417T70 499Q70 537 83 568T118 620T167 651T222 662Q248 663 273 652T316 622T346 573T358 504Q358
451 331 404T246 317L349 171Q363 202 369 240T376 319Q377 330 378 333T389 336H443Q453 336 454 333T456 318Q457 290 453 260T442 199T425 144T402 96L488 -26Q495 -35 494 -40T481 -45H414ZM219 564Q189 564 173 544T156 495Q156 479 163 450T196 388Q211 397
222 406T244 427T261 455T267 495Q267 523 255 543T219 564ZM114 148Q114 127 119 107T136 71T163 48T198 39Q229 39 255 55T300 93L174 272Q160 261 150 250T131 223T118 187T114 148Z" />
<glyph unicode="&apos;" d="M204 470Q199 470 196 473T192 482V694Q192 699 195 702T204 706H295Q300 706 303 703T307 694V482Q307 477 304 474T295 470H204Z" />
<glyph unicode="(" d="M303 -187Q295 -187 289 -178Q195 -62 153 56T110 302Q110 428 152 546T289 782Q295 791 303 791H377Q390 791 383 780Q303 654 265 537T227 302Q227 184 264 67T383 -176Q386 -180 385 -183T377 -187H303Z" />
<glyph unicode=")" d="M211 -178Q205 -187 197 -187H123Q116 -187 115 -184T117 -176Q198 -50 235 67T273 302Q273 419 235 536T117 780Q110 791 123 791H197Q205 791 211 782Q305 665 347 547T390 302Q390 175 348 57T211 -178Z" />
<glyph unicode="*" d="M323 312L392 233Q406 216 406 210T388 191L351 163Q331 147 325 148T308 168L253 260L192 167Q180 148 175 147T150 158L113 186Q93 199 93 205T106 229L174 312L69 342Q48 348 45 353T50 380L66 424Q70 435 73 441T80 448T90 448T105 442L205
398L198 507Q197 518 197 524T200 534T209 537T227 538H273Q285 538 292 537T302 533T305 524T304 507L296 398L397 439Q407 443 413 444T422 445T428 437T435 421L449 377Q457 354 454 349T430 338L323 312Z" />
<glyph unicode="+" d="M304 260V59Q304 47 292 47H210Q198 47 198 59V260H21Q16 260 13 263T9 272V350Q9 355 12 358T21 362H198V562Q198 567 201 570T210 574H292Q297 574 300 571T304 562V362H480Q492 362 492 350V272Q492 260 480 260H304Z" />
<glyph unicode="," d="M208 -191H128Q123 -191 120 -188T119 -178L219 4Q222 9 226 14T241 20H338Q351 20 352 14T350 1L230 -178Q225 -186 220 -188T208 -191Z" />
<glyph unicode="-" d="M69 259Q64 259 60 262T56 271V351Q56 356 60 359T69 363H431Q437 363 440 360T444 351V271Q444 266 441 263T431 259H69Z" />
<glyph unicode="." d="M250 -124Q215 -124 190 -99T165 -39Q165 -4 190 20T250 45Q285 45 309 21T334 -39Q334 -74 310 -99T250 -124Z" />
<glyph unicode="/" d="M153 -94H81Q70 -94 65 -90T63 -73L322 684Q326 695 338 695H417Q440 695 434 675L176 -80Q172 -89 167 -91T153 -94Z" />
<glyph unicode="0" d="M251 -59Q142 -59 90 42T38 297Q38 329 45 397T77 522T142 616T251 653Q294 653 327 636T384 590T423 522T447 440T459 353T462 297Q462 236 449 164T410 43T345 -33T251 -59ZM280 203H219Q206 203 206 216V392Q206 405 219 405H280Q293
405 293 392V216Q293 203 280 203ZM250 547Q226 547 206 532T170 484T148 398T140 297Q140 249 147 196T170 109T205 61T250 46Q273 46 293 61T329 109T351 195T359 297Q359 344 352 397T329 484T294 532T250 547Z" />
<glyph unicode="1" d="M246 -54Q232 -54 232 -41V489L158 425Q153 421 147 420T136 423L91 477Q88 481 88 486T94 497L247 638Q249 640 254 642T262 644H315Q332 644 335 641T339 617V-41Q339 -54 326 -54H246Z" />
<glyph unicode="2" d="M63 -55Q44 -55 44 -43V17Q44 25 48 32T59 47L194 214Q270 313 300 365T330 455Q330 491 308 520T238 549Q201 549 171 538T107 500Q99 495 91 495T81 504L67 581Q65 586 68 590T81 601Q112 622 150 638T232 654Q280 654 315 641T379 602T425
536T442 458Q442 417 423 378T383 305T335 233T273 151L192 48H443Q457 48 457 33V-40Q457 -55 443 -55H63Z" />
<glyph unicode="3" d="M386 -4Q352 -35 303 -48T210 -62Q181 -62 139 -55T63 -34Q53 -31 50 -27T47 -15L55 63Q56 71 61 74T78 72Q106 61 128 57T179 48Q217 44 235 47T271 56T302 73Q345 104 345 155Q345 176 338 193T311 228T263 252T196 260H156Q148 260 146
262T144 272V344Q144 356 146 358T156 360H194Q223 360 244 366T290 385T326 420T339 468Q339 487 328 504T299 532T260 547T220 551Q202 551 180 547T140 534T104 518Q93 513 89 515T82 526L74 601Q72 607 74 611T88 620Q128 637 164 645T229 654Q270 654 310
644T380 613T430 557T449 476Q449 453 445 431T424 383T385 340T336 312Q395 294 427 254T459 153Q459 111 441 68T386 -4Z" />
<glyph unicode="4" d="M384 116V-36Q384 -47 381 -50T367 -54H297Q286 -54 283 -50T279 -36V116H34Q24 116 21 118T18 128V220Q18 228 21 235T28 249L262 631Q268 639 270 641T283 644H374Q382 644 383 641T384 629V219H467Q476 219 479 217T482 204V131Q482 121
479 119T467 116H384ZM118 219H279V483L118 219Z" />
<glyph unicode="5" d="M379 -1Q347 -32 304 -46T212 -61Q200 -61 185 -60T150 -56T106 -48T66 -35Q59 -31 59 -28T58 -18V64Q58 81 79 72Q98 64 116 59T149 50T181 45T214 43Q272 43 303 77T335 166Q335 218 304 253T221 290Q198 290 166 284T102 266Q63 251 63
282L68 629Q69 639 72 641T90 644H407Q413 644 415 641T418 632V552Q418 548 416 544T407 540H178L174 378Q208 387 247 387Q281 387 319 373T386 331T431 266T448 179Q448 63 379 -1Z" />
<glyph unicode="6" d="M248 -62Q153 -62 97 19T40 273Q40 350 55 419T105 540T193 622T317 653Q343 653 374 649T427 636Q435 634 434 624L431 539Q430 526 417 531Q394 541 367 545T310 550Q276 549 246 533T197 488T166 426T151 347Q160 364 177 378T217 400T267
408Q304 408 339 391T401 344T443 271T459 177Q459 127 444 83T400 7T333 -43T248 -62ZM258 305Q212 305 183 266T154 175Q154 150 159 128T179 82T212 48T251 37Q304 37 328 79T353 167Q353 226 325 265T258 305Z" />
<glyph unicode="7" d="M213 -40Q209 -48 205 -51T191 -54H112Q97 -54 93 -51T93 -36L317 541H70Q63 541 58 545T53 558V628Q53 644 70 644H421Q438 644 441 641T445 626V565Q445 557 440 549L213 -40Z" />
<glyph unicode="8" d="M250 -62Q212 -62 172 -50T101 -11T49 53T29 136Q29 170 40 196T68 243T110 280T160 311Q108 342 78 384T47 478Q47 517 63 549T106 604T171 640T250 653Q293 653 330 641T394 607T436 553T451 481Q451 434 424 394T340 311Q370 292 395
274T437 236T463 191T472 136Q472 90 454 53T404 -10T333 -49T250 -62ZM250 555Q235 555 218 549T189 530T168 502T160 469Q160 449 170 433T196 402T226 376T251 361Q261 366 276 378T306 406T330 438T339 471Q339 485 333 500T315 528T285 548T250 555ZM251 256Q237
250 217 240T179 215T153 182T143 136Q143 120 152 101T177 68T212 47T250 39Q269 39 289 46T324 66T347 99T357 136Q357 153 348 171T324 204T289 234T251 256Z" />
<glyph unicode="9" d="M252 653Q347 653 403 572T460 318Q460 241 445 172T395 51T307 -31T183 -62Q157 -62 126 -58T73 -45Q65 -43 66 -33L69 52Q70 65 83 60Q106 50 133 46T190 41Q224 42 254 58T303 103T334 165T349 244Q340 227 323 213T283 191T233 183Q196
183 161 200T99 247T57 320T41 414Q41 464 56 508T100 584T167 634T252 653ZM242 286Q288 286 317 325T346 416Q346 441 341 463T321 509T288 543T249 554Q196 554 172 512T147 424Q147 365 175 326T242 286Z" />
<glyph unicode=":" d="M250 417Q218 417 196 439T173 492Q173 523 195 545T250 568Q282 568 304 546T326 492Q326 462 304 440T250 417ZM250 22Q218 22 196 44T173 98Q173 128 195 150T250 173Q282 173 304 151T326 98Q326 67 304 45T250 22Z" />
<glyph unicode=";" d="M265 418Q235 418 213 440T190 493Q190 524 212 546T265 569Q297 569 319 547T342 493Q342 463 320 441T265 418ZM203 -90H123Q118 -90 115 -87T114 -77L220 119Q223 124 227 129T242 135H339Q352 135 353 129T351 116L225 -77Q220 -85 215
-87T203 -90Z" />
<glyph unicode="&lt;" d="M50 242Q40 252 38 257T36 278V324Q36 340 38 345T50 360L445 771Q458 785 461 784T464 763V668Q464 658 464 652T462 642T456 634T446 622L155 318Q147 310 147 304T157 288L446 -20Q453 -28 456 -32T461 -40T463 -50T464 -66V-161Q464
-181 461 -182T445 -169L50 242Z" />
<glyph unicode="=" d="M26 363Q21 363 18 366T14 375V454Q14 459 17 462T26 466H474Q479 466 482 463T486 454V375Q486 370 483 367T474 363H26ZM26 155Q21 155 18 158T14 167V246Q14 251 17 254T26 258H474Q479 258 482 255T486 246V167Q486 162 483 159T474 155H26Z" />
<glyph unicode="&gt;" d="M55 -169Q42 -183 39 -182T36 -161V-66Q36 -56 36 -50T38 -40T44 -32T54 -20L343 288Q352 298 352 304T345 318L54 622Q47 629 44 633T39 642T37 652T36 668V763Q36 783 39 784T55 771L450 360Q460 350 462 345T464 324V278Q464 262 462
257T450 242L55 -169Z" />
<glyph unicode="?" d="M398 379Q370 342 347 316T307 266Q290 243 281 214T272 150Q272 133 255 133H181Q173 133 170 135T166 148Q166 177 172 207T188 258Q199 281 214 304T255 356Q282 386 303 418T325 485Q325 535 294 555T219 575Q181 575 151 569T85 548Q64
537 64 555V639Q64 648 75 652Q92 658 112 663T153 671T194 677T229 679Q273 679 311 666T376 629T419 574T435 507Q435 462 425 433T398 379ZM214 -58Q184 -58 164 -38T144 12Q144 41 164 62T214 83Q244 83 264 62T285 12Q285 -17 265 -37T214 -58Z" />
<glyph unicode="@" d="M430 153Q407 117 382 100T330 82Q313 82 299 97T284 137Q269 113 247 97T206 80Q184 80 167 92T139 125T121 174T115 235Q115 284 126 331T157 414T205 474T265 497Q285 497 303 483T330 443L337 482H391Q365 527 328 548T253 569Q215 569
184 547T130 484T96 395T84 297Q84 231 96 183T131 100T184 42T258 20Q306 20 339 40T392 101H472Q442 20 385 -25T253 -71Q202 -71 159 -43T83 34T32 151T13 295Q13 367 29 431T76 546Q107 601 152 630T253 660Q302 660 345 637T420 571T470 473T488 351Q488 304
473 250T430 153ZM420 351Q420 387 415 414T399 467Q380 385 367 326T345 227Q341 207 340 198T340 186T344 181Q351 177 362 184T391 227Q405 260 411 289T420 351ZM264 406Q246 406 232 388T207 347T191 294T186 245Q186 203 195 187T215 171Q233 171 248 189T275
234T292 291T299 347Q299 376 291 391T264 406Z" />
<glyph unicode="A" d="M394 -50Q388 -50 385 -48T379 -33L338 140H163L122 -33Q120 -47 117 -48T107 -50H28Q10 -50 16 -33L188 633Q191 641 192 642T204 644H297Q306 644 308 643T313 633L485 -33Q490 -50 473 -50H394ZM187 245H313L250 522L187 245Z" />
<glyph unicode="B" d="M81 -50Q69 -50 69 -40V630Q69 644 81 644H231Q323 644 380 597T438 468Q438 422 416 380T353 314Q379 303 398 285T431 244T450 198T457 160Q457 63 390 7T218 -50H81ZM178 539V361H228Q277 361 302 385T328 454Q328 487 305 513T234 539H178ZM178
258V55H225Q277 55 311 79T345 155Q345 207 311 232T225 258H178Z" />
<glyph unicode="C" d="M423 -38Q400 -46 375 -53T317 -60Q265 -60 214 -33T127 46T73 164T54 299Q54 368 72 434T126 549T213 626T317 654Q341 654 368 650T424 634Q432 631 433 627T434 613L433 537Q433 523 429 523T415 526Q369 549 317 549Q282 549 252 530T203
473T174 389T164 299Q164 256 175 209T205 124T256 66T320 45Q343 45 366 50T415 65Q425 70 428 68T431 60L434 -17Q435 -26 433 -30T423 -38Z" />
<glyph unicode="D" d="M378 36Q358 14 337 -2T291 -28T238 -44T168 -50H72Q59 -50 57 -46T54 -27V618Q54 637 56 640T73 644H204Q339 644 409 534Q440 486 455 438T471 299Q471 206 447 145T378 36ZM329 459Q292 538 219 538H165V57H198Q230 57 256 71T307 118Q333
152 347 190T361 303Q361 363 354 394T329 459Z" />
<glyph unicode="E" d="M96 -50Q76 -50 72 -47T68 -21V617Q68 637 71 640T94 644H417Q428 644 430 641T432 628V556Q432 546 429 543T417 539H178V358H404Q419 358 419 342V270Q419 253 404 253H178V55H429Q443 55 443 38V-34Q443 -50 429 -50H96Z" />
<glyph unicode="F" d="M183 539V361H411Q424 361 424 349V268Q424 256 411 256H183V-35Q183 -50 169 -50H87Q72 -50 72 -35V626Q72 637 76 640T88 644H425Q430 644 433 641T437 632V553Q437 539 425 539H183Z" />
<glyph unicode="G" d="M427 -27Q414 -36 398 -42T361 -54T321 -61T286 -64Q235 -64 189 -38T106 38T51 153T31 296Q31 366 49 430T103 546T184 627T286 657Q319 657 354 651T418 632Q425 629 426 626T427 618L419 535Q418 528 416 525T406 526Q376 539 347 545T286
551Q259 551 231 530T183 472T152 390T141 296Q141 243 152 197T183 115T226 60T286 41Q302 41 318 45T336 57V229H230Q226 229 224 232T222 241V320Q222 326 224 330T231 334H425Q434 334 437 329T440 309V9Q440 -6 436 -14T427 -27Z" />
<glyph unicode="H" d="M69 -50Q64 -50 61 -47T57 -38V632Q57 637 60 640T69 644H156Q161 644 164 641T168 632V362H331V632Q331 637 334 640T343 644H430Q435 644 438 641T442 632V-38Q442 -43 439 -46T430 -50H343Q331 -50 331 -38V257H168V-38Q168 -50 156 -50H69Z" />
<glyph unicode="I" d="M88 -50Q83 -50 80 -47T76 -37V43Q76 48 79 51T88 55H193V539H103Q98 539 95 542T91 552V632Q91 637 94 640T103 644H396Q401 644 404 641T408 632V552Q408 539 396 539H306V55H411Q416 55 419 52T423 43V-37Q423 -50 411 -50H88Z" />
<glyph unicode="J" d="M136 539Q131 539 128 542T124 552V632Q124 637 127 640T136 644H411Q416 644 420 641T424 632V160Q424 37 375 -11T241 -59Q156 -59 109 -11T61 167V191Q61 204 73 204H163Q168 204 171 200T175 190V159Q175 87 192 67T242 46Q273 46 292
69T311 155V539H136Z" />
<glyph unicode="K" d="M382 -50Q373 -50 370 -48T361 -37L242 258L180 167V-38Q180 -50 171 -50H79Q70 -50 70 -38V633Q70 644 79 644H171Q180 644 180 633V334L203 374L363 636Q369 644 375 644H478Q488 644 488 641T485 632L308 356L478 -37Q485 -50 471 -50H382Z" />
<glyph unicode="L" d="M89 -50Q84 -50 81 -47T77 -38V632Q77 637 80 640T89 644H178Q183 644 186 641T190 632V55H430Q442 55 442 42V-38Q442 -43 439 -46T430 -50H89Z" />
<glyph unicode="M" d="M365 -50Q357 -50 355 -48T353 -39L362 419V503L352 419L302 33Q300 28 298 27T285 26H221Q211 26 209 27T204 33L148 419L138 503V419L147 -39Q147 -45 145 -47T135 -50H58Q46 -50 46 -39V623Q46 637 49 640T68 644H185Q192 644 193 642T198
632L242 297L251 194L259 297L300 632Q303 639 304 641T313 644H432Q448 644 451 641T454 623V-39Q454 -50 442 -50H365Z" />
<glyph unicode="N" d="M338 -50Q330 -50 326 -47T316 -34L178 390L158 468V395V-34Q158 -44 155 -47T142 -50H74Q66 -50 62 -47T58 625Q58 637 62 640T77 644H164Q172 644 176 642T186 628L324 204L344 126V199V628Q344 638 347 641T360 644H428Q438 644 440 641T443
628V-31Q443 -43 440 -46T425 -50H338Z" />
<glyph unicode="O" d="M251 -67Q144 -67 93 36T42 294Q42 327 49 395T80 522T144 618T251 655Q293 655 326 638T382 591T419 522T443 439T455 350T458 294Q458 232 445 159T407 36T343 -40T251 -67ZM250 548Q226 548 207 533T173 484T152 396T144 294Q144 245
151 191T173 104T206 55T250 39Q273 39 292 54T326 103T347 191T355 294Q355 342 348 396T326 483T293 532T250 548Z" />
<glyph unicode="P" d="M175 216V-37Q175 -50 162 -50H77Q65 -50 65 -37V632Q65 637 68 640T77 644H224Q335 644 399 590T464 432Q464 377 446 340T394 274T315 231T215 216H175ZM175 539V320H218Q281 320 316 349T352 433Q352 490 321 514T240 539H175Z" />
<glyph unicode="Q" d="M479 -166Q492 -180 488 -185T470 -190H379Q365 -190 361 -189T351 -181L250 -67Q144 -66 93 36T42 294Q42 327 49 395T80 522T144 618T251 655Q293 655 326 638T382 591T419 522T443 439T455 350T458 294Q458 232 445 159T406 36Q382 -11
347 -37L479 -166ZM250 548Q226 548 207 533T173 484T152 396T144 294Q144 245 151 191T173 104T206 55T250 39Q273 39 292 54T326 103T347 191T355 294Q355 342 348 396T326 483T293 532T250 548Z" />
<glyph unicode="R" d="M392 -50Q381 -50 377 -49T368 -41L229 223H166V-39Q166 -50 153 -50H68Q56 -50 56 -39V633Q56 638 59 641T68 644H217Q327 644 386 586T445 435Q445 368 415 320T332 247L489 -38Q497 -50 478 -50H392ZM166 539V327H215Q271 327 302 353T333
434Q333 489 304 514T228 539H166Z" />
<glyph unicode="S" d="M395 -4Q369 -29 330 -47T256 -67Q232 -69 209 -68T158 -61T110 -51T77 -41Q62 -35 59 -32T58 -18L65 51Q67 58 70 60T86 57Q96 53 118 46T166 35T214 30T258 34Q300 42 320 67T340 127Q340 161 315 189T258 240Q215 269 175 296T109 351T71
407T58 469Q58 505 76 539T124 599T190 640T277 654Q318 654 351 648T408 634Q419 629 420 626T421 614L409 550Q406 541 402 537T385 537Q370 540 354 544T322 552T290 556T261 556Q216 550 194 525T171 463Q171 439 191 414T260 357Q316 320 353 293T413 241T444
190T453 134Q453 53 395 -4Z" />
<glyph unicode="T" d="M306 539V-38Q306 -50 294 -50H205Q193 -50 193 -38V539H36Q31 539 28 542T24 552V632Q24 637 27 640T36 644H464Q469 644 472 641T476 632V552Q476 539 464 539H306Z" />
<glyph unicode="U" d="M388 -7Q331 -65 250 -65Q169 -65 112 -7Q78 31 64 88T49 221V629Q49 634 52 639T58 644H155Q158 644 160 640T162 631V221Q162 122 181 83T250 43Q299 43 319 82T339 221V631Q339 636 341 640T347 644H443Q446 644 449 639T452 629V221Q452
147 437 89T388 -7Z" />
<glyph unicode="V" d="M307 -50H194Q187 -50 184 -49T178 -39L31 630Q29 637 31 640T47 644H128Q136 644 139 643T144 634L217 272L249 103L281 271L354 634Q357 641 360 642T371 644H452Q465 644 467 641T468 630L323 -39Q320 -47 317 -48T307 -50Z" />
<glyph unicode="W" d="M401 -50H300Q292 -50 289 -49T284 -39L255 326L249 417L243 326L214 -39Q212 -47 210 -48T198 -50H97Q89 -50 86 -49T81 -39L21 630Q19 637 21 640T36 644H102Q109 644 112 643T117 634L145 208L149 111L156 208L186 564Q188 571 191 572T202
574H296Q303 574 306 573T312 564L342 208L349 111L353 208L381 634Q383 641 386 642T396 644H463Q476 644 478 641T478 630L417 -39Q415 -47 412 -48T401 -50Z" />
<glyph unicode="X" d="M382 -50Q374 -50 371 -48T366 -43L250 189L134 -43Q132 -46 129 -48T117 -50H29Q20 -50 19 -46T19 -37L191 310L32 632Q30 637 32 640T46 644H129Q144 644 147 638L250 427L352 638Q355 644 370 644H453Q464 644 466 641T467 632L308 310L480
-37Q482 -42 481 -46T470 -50H382Z" />
<glyph unicode="Y" d="M306 -38Q306 -50 294 -50H205Q193 -50 193 -38V217L27 631Q20 644 36 644H125Q135 644 138 638L221 422L250 337L279 422L362 638Q365 644 375 644H463Q479 644 472 631L306 217V-38Z" />
<glyph unicode="Z" d="M60 -50Q55 -50 52 -47T48 -38V32Q48 36 50 41T55 51L314 539H70Q57 539 57 552V632Q57 637 61 640T70 644H425Q430 644 434 641T438 632V560Q438 558 436 552T432 544L172 55H440Q452 55 452 42V-38Q452 -43 449 -46T440 -50H60Z" />
<glyph unicode="[" d="M164 -186Q159 -186 156 -182T152 -173V778Q152 783 155 787T164 791H334Q340 791 343 787T347 778V704Q347 692 334 692H259V-87H334Q347 -87 347 -99V-173Q347 -178 344 -182T334 -186H164Z" />
<glyph unicode="\" d="M346 -124Q338 -124 333 -122T323 -110L65 705Q59 725 82 725H161Q173 725 177 714L436 -103Q440 -115 435 -119T418 -124H346Z" />
<glyph unicode="]" d="M164 -186Q159 -186 156 -182T152 -173V-99Q152 -87 164 -87H240V692H164Q152 692 152 704V778Q152 783 155 787T164 791H335Q340 791 343 787T347 778V-173Q347 -178 344 -182T335 -186H164Z" />
<glyph unicode="^" d="M394 323Q387 323 385 324T378 334L251 575L123 334Q119 326 117 325T107 323H29Q6 323 14 338L194 693Q196 698 198 700T209 702H293Q300 702 302 701T308 693L487 338Q495 323 472 323H394Z" />
<glyph unicode="_" d="M16 -178Q11 -178 8 -175T4 -166V-86Q4 -81 7 -78T16 -74H484Q489 -74 492 -77T496 -86V-166Q496 -171 493 -174T484 -178H16Z" />
<glyph unicode="`" d="M286 556Q278 556 273 557T262 566L129 702Q123 708 125 713T135 719H252Q259 719 262 718T270 708L371 567Q378 556 368 556H286Z" />
<glyph unicode="a" d="M357 -50Q350 -50 349 -49T347 -42V4Q323 -31 287 -48T214 -66Q185 -66 153 -56T97 -25T61 26T47 96Q47 139 64 174T118 234T205 269T337 281Q337 299 334 314T321 344T296 367T255 377Q223 377 189 365T124 333Q109 323 104 324T98 335V413Q98
415 98 420T101 429Q106 434 114 438Q144 455 180 466T253 477Q349 477 396 429T444 289V69Q444 42 444 14T448 -36Q449 -50 437 -50H357ZM154 103Q154 68 175 51T220 33Q273 33 307 74T341 175V186Q234 186 194 165T154 103Z" />
<glyph unicode="b" d="M276 -62Q243 -62 211 -44T162 4V-35Q162 -50 149 -50H69Q55 -50 55 -35V694Q55 706 66 706H152Q158 706 160 704T162 694V415Q184 446 213 461T276 477Q321 477 355 457T414 398T452 307T466 209Q466 151 453 100T416 13T357 -42T276 -62ZM253
375Q208 375 183 328T157 209Q157 182 164 148T184 89T216 52T253 39Q299 39 326 88T353 209Q353 275 327 325T253 375Z" />
<glyph unicode="c" d="M421 -48Q411 -52 396 -55T362 -60T328 -62T295 -62Q237 -58 197 -36T126 21T80 104T64 208Q64 266 83 315T135 401T211 456T313 476Q337 476 366 472T424 457Q428 456 430 454T431 442L422 372Q421 365 418 362T407 361Q386 369 361 373T311
377Q238 377 206 329T173 208Q173 138 205 92T301 37Q358 30 411 46Q420 50 422 47T426 38L431 -32Q432 -39 431 -42T421 -48Z" />
<glyph unicode="d" d="M218 -62Q172 -62 138 -43T79 12T41 99T28 209Q28 253 41 306T79 398T138 456T218 477Q251 477 280 462T332 415V694Q332 702 334 704T342 706H428Q439 706 439 694V-35Q439 -50 425 -50H345Q332 -50 332 -35V4Q315 -26 283 -44T218 -62ZM241
375Q193 375 167 325T141 209Q141 138 168 89T241 39Q260 39 278 52T309 89T330 146T337 209Q337 280 312 327T241 375Z" />
<glyph unicode="e" d="M449 177Q449 169 446 166T436 162H162Q163 109 189 72T275 34Q311 34 338 42T395 72Q403 76 404 71T406 59V-12Q406 -21 403 -25T393 -35Q367 -49 341 -57T275 -65Q161 -65 105 8T49 201Q49 252 61 300T98 388T163 452T253 477Q307 477
344 454T405 394T439 308T450 204Q450 197 450 189T449 177ZM251 381Q227 381 209 368T180 332T166 291T162 261H341Q341 272 338 290T324 331T294 367T251 381Z" />
<glyph unicode="f" d="M427 601Q413 608 392 613T346 619Q319 620 306 607T288 575Q286 563 285 547T283 510V441H437Q449 441 449 429V351Q449 346 446 343T437 339H283V-38Q283 -50 271 -50H189Q177 -50 177 -38V339H65Q60 339 57 342T53 351V429Q53 434 56
437T65 441H176V503Q176 551 182 590T207 659Q223 684 252 700T336 717Q361 717 387 712T433 698Q440 694 440 684L436 616Q436 599 427 601Z" />
<glyph unicode="g" d="M222 -199Q189 -199 156 -194T90 -175Q82 -171 80 -168T77 -159L81 -76Q82 -59 98 -67Q127 -83 160 -91T223 -99Q278 -99 308 -65T340 24Q319 -2 292 -15T236 -28Q193 -28 161 -12T99 38T55 120T40 215Q40 334 93 404T233 474Q258 474 280
468T321 446T349 414L348 451Q347 459 349 461T359 464H431Q441 464 441 450V66Q441 -60 385 -129T222 -199ZM244 376Q198 376 174 330T149 215Q149 180 156 151T177 104T206 76T240 65Q262 65 278 75T307 103T327 150T336 215Q336 284 312 330T244 376Z" />
<glyph unicode="h" d="M338 -50Q326 -50 326 -38V228Q326 303 309 337T254 372Q163 372 153 266V-38Q153 -50 142 -50H58Q54 -50 51 -47T47 -38V690Q47 695 50 698T58 702H136Q140 702 143 699T146 690V420Q168 447 197 460T258 474Q433 474 433 229V-38Q433 -43
430 -46T422 -50H338Z" />
<glyph unicode="i" d="M67 -50Q62 -50 59 -47T55 -37V41Q55 46 58 49T67 53H203V361H85Q80 361 77 364T73 374V452Q73 457 76 460T85 464H299Q304 464 307 461T311 452V53H434Q439 53 442 50T446 41V-37Q446 -50 434 -50H67ZM243 543Q211 543 189 565T167 618Q167
651 189 673T243 696Q276 696 298 674T321 618Q321 587 299 565T243 543Z" />
<glyph unicode="j" d="M128 359Q123 359 120 362T116 372V452Q116 457 119 460T128 464H389Q394 464 397 461T401 452V19Q401 -103 355 -151T227 -199Q146 -199 99 -152T51 19V51Q51 64 63 64H146Q151 64 154 60T157 50V15Q157 -51 175 -72T227 -94Q260 -94 276
-73T293 15V359H128ZM327 543Q295 543 273 565T251 618Q251 651 273 673T327 696Q360 696 382 674T405 618Q405 587 383 565T327 543Z" />
<glyph unicode="k" d="M380 -50Q369 -50 365 -48T355 -37L224 176L166 109V-38Q166 -50 153 -50H72Q67 -50 64 -47T60 -38V689Q60 694 63 697T72 701H153Q159 701 162 698T166 689V257L332 455Q340 464 348 464H451Q470 464 457 450L293 256L479 -37Q489 -50 472
-50H380Z" />
<glyph unicode="l" d="M70 -50Q65 -50 62 -47T58 -37V41Q58 46 61 49T70 53H206V598H102Q97 598 94 601T90 611V689Q90 694 93 697T102 701H302Q307 701 310 698T314 689V53H437Q442 53 445 50T449 41V-37Q449 -50 437 -50H70Z" />
<glyph unicode="m" d="M381 -50Q378 -50 376 -46T374 -36V271Q374 321 367 348T344 376Q334 376 326 365T314 329T309 277T309 214V-27Q309 -40 303 -40H223Q220 -40 218 -36T216 -26V271Q215 376 184 376Q166 376 159 342T151 249V-37Q151 -50 144 -50H61Q59
-50 57 -46T55 -36V323Q55 361 55 396T53 451Q52 464 61 464H135Q141 464 141 456L140 416Q146 444 163 460T199 476Q226 476 247 452T274 381Q287 429 310 452T363 476Q409 476 439 426T470 284V-37Q470 -42 468 -46T463 -50H381Z" />
<glyph unicode="n" d="M351 -50Q346 -50 343 -46T339 -36V243Q339 315 321 347T265 379Q222 379 194 343T165 237V-37Q165 -50 153 -50H71Q66 -50 63 -46T59 -36V323Q59 361 59 396T56 451Q54 464 70 464H148Q159 464 157 456L156 420Q173 444 203 461T268 478Q340
478 392 425T445 258V-37Q445 -50 433 -50H351Z" />
<glyph unicode="o" d="M407 20Q378 -22 339 -43T250 -65Q200 -65 162 -44T97 14T57 101T44 206Q44 262 57 311T96 397T161 455T250 476Q300 476 338 455T403 397T443 311T456 206Q456 151 443 103T407 20ZM250 378Q224 378 206 363T177 324T159 268T152 206Q152
174 158 144T176 88T206 48T250 33Q275 33 293 48T323 88T341 143T348 206Q348 237 342 267T324 322T294 362T250 378Z" />
<glyph unicode="p" d="M276 476Q322 476 356 457T415 402T453 315T466 205Q466 161 453 108T415 16T356 -42T276 -63Q243 -63 214 -48T162 -1V-187Q162 -195 160 -197T152 -199H66Q55 -199 55 -187V449Q55 464 69 464H149Q162 464 162 449V410Q179 440 211 458T276
476ZM253 39Q301 39 327 89T353 205Q353 276 326 325T253 375Q234 375 216 362T185 325T164 268T157 205Q157 134 182 87T253 39Z" />
<glyph unicode="q" d="M224 476Q257 476 289 458T338 410V449Q338 464 351 464H431Q445 464 445 449V-187Q445 -199 434 -199H348Q342 -199 340 -197T338 -187V-1Q316 -32 287 -47T224 -63Q179 -63 145 -43T86 16T48 107T34 205Q34 263 47 314T84 401T143 456T224
476ZM247 39Q292 39 317 86T343 205Q343 234 336 267T316 325T284 362T247 375Q201 375 174 326T147 205Q147 139 173 89T247 39Z" />
<glyph unicode="r" d="M57 -50Q52 -50 49 -47T45 -37V41Q45 46 48 49T57 53H120V329V364H38Q33 364 30 367T26 377V452Q26 457 29 460T38 464H202Q206 464 208 462T211 455V370Q221 391 232 406T257 434T288 457T340 476Q383 483 423 474T491 443Q496 438 495
434T493 426L460 358Q458 352 454 350T442 352Q419 365 391 370T336 370Q289 361 262 325T229 252T223 165V53H327Q332 53 335 50T339 41V-37Q339 -50 327 -50H57Z" />
<glyph unicode="s" d="M360 -29Q309 -64 232 -65Q212 -65 191 -63T151 -59T114 -52T86 -43Q82 -42 78 -38T74 -27L80 40Q81 49 83 51T96 50Q131 40 165 36T228 31Q272 31 293 46T315 89Q315 103 304 118T267 150Q240 166 211 182T154 214Q122 232 101 264T79 326Q79
363 94 392T134 442T191 471T260 480Q279 480 299 478T339 473T374 465T398 455Q403 453 403 451T403 443L397 377Q396 367 391 365T377 366Q358 373 334 379Q315 383 298 384T266 386Q225 386 208 371T191 338Q191 321 210 304T258 271Q290 255 316 240T355 214Q391
189 409 160T427 98Q427 20 360 -29Z" />
<glyph unicode="t" d="M446 -39Q409 -52 372 -58T308 -63Q256 -63 225 -46T182 -5Q168 21 165 56T162 151V340H52Q47 340 44 343T40 352V431Q40 436 43 439T52 443H162V588Q162 593 166 596T175 600H256Q262 600 265 597T269 588V443H437Q442 443 445 440T449
431V352Q449 347 446 344T437 340H269V145Q269 80 272 62Q274 43 290 39T335 35Q358 35 383 40T432 53Q437 55 439 54T443 44L451 -27Q452 -34 446 -39Z" />
<glyph unicode="u" d="M354 -50Q350 -50 347 -48T343 -40V1Q324 -32 295 -49T226 -66Q151 -66 103 -9T54 154V450Q54 455 57 459T65 464H150Q154 464 157 459T161 449V170Q161 95 182 64T238 33Q281 33 309 74T337 196V450Q337 455 340 459T350 464H433Q437 464
440 459T444 448V79Q444 48 445 18T446 -37Q446 -50 435 -50H354Z" />
<glyph unicode="v" d="M292 -50H206Q200 -50 198 -49T193 -41L36 453Q34 458 36 461T49 464H131Q136 464 139 463T144 456L219 203L249 90L278 203L353 456Q355 461 358 462T367 464H450Q461 464 463 461T463 453L304 -41Q302 -47 300 -48T292 -50Z" />
<glyph unicode="w" d="M311 -50Q300 -50 296 -45T290 -35L255 215L250 270L246 215L211 -35Q207 -45 203 -47T188 -50H118Q110 -50 105 -45T98 -35L23 453Q22 458 24 461T43 464H97Q111 464 114 461T119 453L150 186L156 104L163 186L196 413Q197 418 201 421T217
424H284Q302 424 304 413L337 186L345 104L351 186L381 453Q382 457 386 460T400 464H457Q472 464 475 461T477 453L403 -35Q399 -44 396 -47T382 -50H311Z" />
<glyph unicode="x" d="M364 -50Q355 -50 349 -44L250 115L155 -38Q146 -50 136 -50H43Q37 -50 37 -47T38 -38L192 210L56 452Q54 457 56 460T64 464H154Q161 464 170 452L250 306L330 452Q339 464 346 464H436Q452 464 445 452L308 210L462 -38Q464 -43 463 -46T457
-50H364Z" />
<glyph unicode="y" d="M129 -199Q109 -199 94 -197T63 -189Q58 -187 55 -184T53 -174L59 -108Q59 -95 70 -99Q83 -103 96 -104T120 -106Q135 -106 145 -102T161 -88Q166 -78 171 -68T180 -45T190 -18T200 13L48 453Q44 465 56 465H139Q149 465 151 453L251 155L353
453Q355 465 365 465H449Q460 465 456 453L274 -66Q248 -139 214 -169T129 -199Z" />
<glyph unicode="z" d="M70 -50Q65 -50 62 -47T58 -38V36Q58 43 63 51L310 362H82Q78 362 75 366T71 375V452Q71 457 74 460T82 464H428Q433 464 436 461T440 452V378Q440 372 433 362L186 52H430Q442 52 442 39V-38Q442 -43 439 -46T430 -50H70Z" />
<glyph unicode="{" d="M323 705Q312 705 302 683T292 619V449Q292 398 276 363T226 303Q259 277 275 243T292 157V-14Q292 -55 302 -77T323 -99H369Q379 -99 379 -111V-172Q379 -184 369 -184H316Q297 -184 284 -180Q259 -174 242 -159T213 -124T197 -81T192 -34V140Q192
167 189 186T180 219T169 240T158 253Q152 259 145 262T119 271Q106 273 104 275T101 282V324Q101 329 103 331T119 335Q137 339 144 342T158 352Q163 357 169 365T180 387T188 419T192 466V639Q192 662 197 685T213 729T241 764T284 785Q297 789 316 789H369Q379
789 379 778V717Q379 705 369 705H323Z" />
<glyph unicode="|" d="M291 -160H209Q196 -160 196 -147V248Q196 261 209 261H291Q304 261 304 248V-147Q304 -160 291 -160ZM291 340H209Q196 340 196 353V746Q196 759 209 759H291Q304 759 304 746V353Q304 340 291 340Z" />
<glyph unicode="}" d="M381 271Q363 266 356 263T342 253Q337 248 331 240T320 219T312 187T308 140V-34Q308 -57 303 -80T287 -124T259 -159T216 -180Q203 -184 184 -184H131Q121 -184 121 -172V-111Q121 -99 131 -99H177Q188 -99 198 -77T208 -14V157Q208 208
224 242T273 303Q241 328 224 363T207 449V619Q207 660 198 682T177 705H131Q121 705 121 717V778Q121 789 131 789H183Q203 789 215 785Q240 779 257 765T286 730T302 686T307 639V466Q307 439 310 420T319 387T331 366T342 352Q347 347 355 343T381 335Q394 333
396 331T399 324V282Q399 275 381 271Z" />
<glyph unicode="~" d="M349 225Q329 225 298 234T237 258Q199 275 182 281T145 287Q135 287 123 281T101 266T80 247T63 226Q53 210 46 224L12 280Q4 294 6 298Q8 303 13 310T26 327Q51 358 79 372T146 387Q166 387 188 381T232 367Q253 359 270 352T313 334Q340
324 350 324Q370 324 394 344T437 391Q441 397 444 396T450 391L492 327Q494 323 495 321T492 312Q468 267 430 246T349 225Z" />
<glyph unicode="&#xa0;" />
<glyph unicode="&#xa1;" horiz-adv-x="1000" d="M451 472Q451 486 453 489T469 492H532Q544 492 546 490T549 472L563 -55Q564 -76 561 -80T544 -85H456Q442 -85 439 -81T436 -55L451 472ZM570 621Q570 591 550 571T500 550Q470 550 450 570T429 621Q429 651 449
671T500 692Q530 692 550 672T570 621Z" />
<glyph unicode="&#xa4;" horiz-adv-x="1000" d="M735 300Q735 351 716 395T665 471T588 523T493 542Q442 542 398 523T322 472T270 395T251 300Q251 249 270 205T321 129T398 77T493 58Q544 58 588 77T664 128T716 205T735 300ZM899 588L768 472Q791 434 804 391T817
300Q817 249 802 203T760 118L898 -8L843 -72L704 55Q662 18 608 -3T493 -24Q436 -24 384 -6T290 47L157 -74L102 -10L231 108Q202 148 186 197T169 300Q169 349 182 394T220 478L101 586L162 646L278 542Q321 581 375 602T493 624Q558 624 614 601T714 536L839
648L899 588Z" />
<glyph unicode="&#xa7;" horiz-adv-x="1000" d="M540 304Q511 346 494 363T455 381Q440 381 436 372T434 350T444 321T461 292Q487 252 503 235T536 218Q554 218 560 227T565 249T556 277T540 304ZM648 254Q648 173 587 154Q607 125 616 99T625 39Q625 -34 591
-70T493 -107Q433 -107 399 -78T364 15H452Q452 -18 463 -28T492 -39Q514 -39 523 -27T533 18Q533 82 479 133Q424 184 388 234T352 341Q352 389 370 415T420 448Q399 477 387 507T374 574Q374 711 501 711Q564 711 593 680T623 594H538Q538 629 526 639T497 649Q475
649 466 637T456 597Q456 559 475 531T530 468Q581 417 614 365T648 254Z" />
<glyph unicode="&#xa8;" horiz-adv-x="1000" d="M294 658Q294 688 315 709T365 730Q395 730 416 709T437 658Q437 629 416 608T365 587Q336 587 315 608T294 658ZM562 658Q562 688 583 709T633 730Q663 730 684 709T705 658Q705 629 684 608T633 587Q604 587 583
608T562 658Z" />
<glyph unicode="&#xa9;" horiz-adv-x="1000" d="M718 235Q710 178 691 138T644 73T579 37T499 26Q441 26 398 47T325 106T282 192T267 296Q267 353 282 402T326 488T398 546T499 567Q540 567 576 557T641 523T688 463T713 374H612Q604 424 574 448T499 472Q465
472 441 458T401 419T378 362T370 296Q370 260 377 228T400 172T440 134T499 120Q549 120 579 146T614 235H718ZM826 298Q826 369 802 429T734 532T631 600T500 625Q428 625 368 601T265 533T197 429T172 298Q172 227 196 167T264 64T368 -4T500 -29Q571 -29 630
-5T733 63T801 167T826 298ZM900 298Q900 211 870 138T787 12T660 -70T500 -100Q413 -100 340 -71T214 12T130 138T100 298Q100 385 130 458T213 584T340 666T500 696Q587 696 660 667T786 584T870 458T900 298Z" />
<glyph unicode="&#xaa;" horiz-adv-x="1000" d="M538 551Q533 546 527 544T517 540Q487 534 469 528T440 516T426 502T422 485Q422 449 462 449Q503 449 520 466T538 510V551ZM670 261H329V339H670V261ZM640 402Q625 398 617 398T600 397Q582 397 571 403T551
424Q540 407 517 397T458 387Q410 387 381 410T352 485Q352 509 360 526T387 557T434 579T503 597Q516 599 527 606T538 629Q538 667 489 667Q463 667 448 656T433 619H364Q364 675 400 701T492 728Q517 728 538 723T574 706T598 674T607 624V469Q607 460 616 458Q621
457 626 458T640 462V402Z" />
<glyph unicode="&#xab;" horiz-adv-x="1000" d="M644 2L601 -55L138 274V326L601 655L644 598L226 300L644 2ZM861 6L819 -50L355 274V326L819 650L861 594L444 300L861 6Z" />
<glyph unicode="&#xae;" horiz-adv-x="1000" d="M500 -76Q333 -76 215 41T97 326Q97 493 215 611T500 729Q666 729 784 611T902 326Q902 159 784 42T500 -76ZM500 682Q353 682 249 578T144 326Q144 179 248 76T500 -28Q647 -28 751 75T855 326Q855 473 751 577T500
682ZM695 74H608L553 197Q510 290 461 290H414V74H343V586H487Q576 586 624 549T673 447Q673 394 639 357T544 307V305Q586 296 628 210L695 74ZM414 525V350H491Q597 350 597 438Q597 485 568 505T478 525H414Z" />
<glyph unicode="&#xb0;" horiz-adv-x="1000" d="M558 614Q558 638 541 655T500 673Q476 673 459 656T442 614Q442 590 459 573T500 555Q524 555 541 572T558 614ZM626 614Q626 588 616 565T589 525T549 498T500 488Q474 488 451 498T411 525T384 565T374 614Q374
640 384 663T411 703T451 730T500 740Q526 740 549 730T589 703T616 663T626 614Z" />
<glyph unicode="&#xb1;" horiz-adv-x="1000" d="M751 442T751 429V363Q751 350 738 350H546V155Q546 142 533 142H465Q452 142 452 155V350H262Q249 350 249 363V429Q249 442 262 442H452V636Q452 649 465 649H533Q546 649 546 636V442H738Q751 442 751 429ZM745
91T745 78V12Q745 -1 731 -1H268Q254 -1 254 12V78Q254 91 268 91H731Q745 91 745 78Z" />
<glyph unicode="&#xb2;" horiz-adv-x="1000" d="M582 494H417Q419 541 440 566T493 611Q511 622 522 634T533 663Q533 688 505 688Q472 688 472 639H423Q423 686 445 710T503 734Q535 734 557 716T580 663Q580 645 574 632T558 609T535 589T507 570Q496 563 490
556T481 542H582V494Z" />
<glyph unicode="&#xb3;" horiz-adv-x="1000" d="M583 567Q583 529 558 510T499 491Q481 491 466 495T440 508T423 534T417 575H465Q465 551 473 543T500 535Q534 535 534 566Q534 595 502 595H482V636H502Q513 636 520 644T527 664Q527 676 519 682T499 688Q469
688 469 652H421Q421 694 442 713T499 733Q529 733 552 718T575 666Q575 653 570 641T554 621Q567 616 575 602T583 567Z" />
<glyph unicode="&#xb4;" horiz-adv-x="1000" d="M616 729L445 514H384L481 729H616Z" />
<glyph unicode="&#xb6;" horiz-adv-x="1000" d="M730 -111H641V638H569V-111H480V297Q380 305 325 362T269 506Q269 551 284 589T327 656T398 700T497 716H730V-111Z" />
<glyph unicode="&#xb7;" horiz-adv-x="1000" d="M577 333Q577 299 555 278T499 256Q466 256 444 277T422 333Q422 366 443 388T498 410Q531 410 554 388T577 333Z" />
<glyph unicode="&#xb8;" horiz-adv-x="1000" d="M606 -101Q606 -140 576 -169T491 -199Q468 -199 442 -189T393 -161L421 -115Q441 -129 455 -135T486 -141Q503 -141 517 -132T531 -107Q531 -91 522 -82T496 -72Q474 -72 458 -92L427 -74L475 33H541L521 -19H531Q566
-19 586 -42T606 -101Z" />
<glyph unicode="&#xb9;" horiz-adv-x="1000" d="M545 496H496V641H455V684Q468 685 476 687T489 694T497 707T502 730H545V496Z" />
<glyph unicode="&#xba;" horiz-adv-x="1000" d="M575 556Q575 610 555 636T498 663Q462 663 442 637T421 556Q421 502 441 476T498 449Q534 449 554 475T575 556ZM670 261H329V339H670V261ZM646 556Q646 514 635 482T605 429T558 397T498 386Q433 386 392 429T350
556Q350 640 391 683T498 726Q530 726 557 715T604 683T635 630T646 556Z" />
<glyph unicode="&#xbb;" horiz-adv-x="1000" d="M644 274L180 -50L138 6L555 300L138 594L180 650L644 326V274ZM861 274L398 -55L355 2L773 300L355 598L398 655L861 326V274Z" />
<glyph unicode="&#xbc;" horiz-adv-x="1000" d="M664 51V137L601 51H664ZM790 -21H736V-103H664V-21H516V38L676 258H736V51H790V-21ZM792 563L256 -2L207 43L745 603L792 563ZM371 347H296V570H233V636Q253 637 265 640T285 650T297 671T304 707H371V347Z" />
<glyph unicode="&#xbd;" horiz-adv-x="1000" d="M793 -107H538Q539 -71 549 -45T574 2T611 37T655 68Q684 85 701 101T718 144Q718 183 674 183Q623 183 623 107H547Q547 179 581 216T671 254Q721 254 755 227T790 144Q790 117 781 98T756 62T720 33T677 5Q660
-6 651 -15T637 -34H793V-107ZM792 564L256 -1L206 44L744 604L792 564ZM375 347H300V570H236V636Q256 637 268 640T288 650T300 671T307 707H375V347Z" />
<glyph unicode="&#xbe;" horiz-adv-x="1000" d="M661 49L662 135L598 49H661ZM788 -23H734V-105H662V-23H513V36L673 256H733V49H788V-23ZM803 563L267 -2L217 43L755 603L803 563ZM452 458Q452 429 442 407T414 371T373 350T324 343Q296 343 273 349T233 370T207
410T197 473H270Q270 436 283 423T324 410Q349 410 363 421T377 456Q377 503 328 503H297V566H327Q344 566 355 575T366 603Q366 621 354 630T323 640Q277 640 277 581H203Q203 644 236 676T322 709Q345 709 366 703T404 685T430 653T440 606Q440 586 433 569T407
540Q427 532 439 511T452 458Z" />
<glyph unicode="&#xbf;" horiz-adv-x="1000" d="M351 235Q378 271 402 305T441 360Q458 385 467 415T476 483Q476 501 494 501H568Q576 501 580 498T584 485Q584 454 578 421T561 365Q550 342 535 317T499 269Q468 234 447 194T426 117Q426 69 456 45T529 20Q567
20 597 26T663 48Q672 52 678 51T685 39V-43Q685 -53 674 -58Q639 -70 596 -78T520 -86Q476 -86 438 -72T373 -33T330 26T314 100Q314 148 324 179T351 235ZM600 626Q600 599 581 580T535 560Q507 560 488 579T468 626Q468 654 487 673T535 692Q562 692 581 673T600
626Z" />
<glyph unicode="&#xc6;" horiz-adv-x="1000" d="M480 256V512L375 256H480ZM877 -42H480V147H329L249 -42H123L427 676H870V567H597V385H846V276H597V67H877V-42Z" />
<glyph unicode="&#xd0;" horiz-adv-x="1000" d="M722 317Q722 384 712 432T677 510T610 554T504 568H395V389H484V311H395V66H504Q568 66 610 80T677 124T712 201T722 317ZM838 317Q838 129 759 44T517 -42H278V311H162V389H278V676H517Q680 676 759 590T838 317Z" />
<glyph unicode="&#xd7;" horiz-adv-x="1000" d="M757 119T757 113T752 102L710 58Q705 53 699 53T687 58L500 245L311 57Q297 45 289 57L247 100Q242 105 242 112T247 124L435 312L254 491Q249 496 249 502T254 513L297 557Q309 569 320 557L501 379L684 560Q689
565 695 565T707 560L747 517Q752 512 752 505T747 493L566 311L752 124Q757 119 757 113Z" />
<glyph unicode="&#xd8;" horiz-adv-x="1000" d="M603 555Q558 583 500 583Q452 583 415 565T351 512T310 428T296 317Q296 254 310 205T352 120L603 555ZM704 317Q704 433 657 501L409 72Q448 51 500 51Q548 51 585 69T649 122T690 206T704 317ZM822 317Q822 227
797 158T729 40T626 -32T500 -57Q422 -57 354 -23L273 -164L209 -127L293 18Q240 66 209 140T178 317Q178 407 203 476T271 594T373 666T500 691Q588 691 658 650L725 765L789 729L717 605Q766 557 794 486T822 317Z" />
<glyph unicode="&#xde;" horiz-adv-x="1000" d="M594 319Q594 361 577 390T532 438T473 466T412 476V162Q441 163 473 172T531 199T575 247T593 319H594ZM705 319Q705 253 679 205T610 126T516 80T413 64V-42H295V676H412V574Q463 573 515 558T609 512T678 433T705 319Z" />
<glyph unicode="&#xdf;" horiz-adv-x="1000" d="M626 477Q626 521 599 544T510 567H341V387H509Q573 387 599 410T625 477H626ZM775 147Q775 92 762 47T722 -30T657 -80T568 -98Q486 -98 436 -61T372 63H484Q489 29 506 14T562 -1Q612 -1 636 32T660 134Q660 207
621 242T510 277H342V-42H224V676H509Q561 676 604 666T678 634T726 577T743 490Q743 436 724 398T660 333Q709 315 742 267T775 147Z" />
<glyph unicode="&#xe6;" horiz-adv-x="1000" d="M427 207Q419 200 409 196T393 190Q345 179 314 170T264 150T239 127T232 100Q232 72 249 58T297 43Q362 43 393 70T426 140L427 207ZM768 282H769Q763 330 738 361T657 392Q605 392 580 361T545 282H768ZM880 218V182H542Q544
118 573 81T657 44Q714 44 740 65T774 131H880Q863 39 809 -9T658 -57Q604 -57 559 -36T482 31Q454 -14 406 -35T291 -57Q215 -57 167 -19T119 100Q119 138 133 166T178 216T254 253T365 281Q386 285 406 297T427 332Q427 365 406 379T345 394Q303 394 277 376T251
316H139Q139 362 155 395T199 450T265 482T348 493Q399 493 440 480T507 434Q536 463 573 478T656 493Q711 493 753 473T823 417T866 330T881 218H880Z" />
<glyph unicode="&#xf0;" horiz-adv-x="1000" d="M625 213Q625 300 592 340T500 380Q442 380 409 340T375 213Q375 126 409 86T500 46Q558 46 591 86T625 213ZM738 214Q738 149 719 99T668 14T592 -39T500 -57Q451 -57 408 -40T333 10T281 94T262 213Q262 280 281
331T332 415T408 466T500 483Q543 483 581 470Q576 493 566 515T542 557L494 511L450 555L475 580Q480 585 484 589T493 597L501 605Q467 638 433 661L460 705Q511 682 550 654L578 680Q590 691 605 707L650 663L600 614Q640 577 666 533T709 439T731 332T738 214Z"
/>
<glyph unicode="&#xf7;" horiz-adv-x="1000" d="M787 357T787 344V280Q787 267 773 267H227Q213 267 213 280V344Q213 357 227 357H773Q787 357 787 344ZM498 590Q530 590 551 570T572 518Q572 486 551 466T499 445Q467 445 447 465T426 518Q426 549 446 569T498
590ZM498 179Q530 179 551 159T572 107Q572 75 551 55T499 34Q467 34 447 54T426 107Q426 138 446 158T498 179Z" />
<glyph unicode="&#xf8;" horiz-adv-x="1000" d="M541 384Q523 390 500 390Q442 390 409 348T375 218Q375 136 406 93L541 384ZM625 218Q625 299 595 343L459 52Q477 46 500 46Q559 46 592 88T625 218ZM738 218Q738 150 720 99T671 13T596 -39T500 -57Q455 -57
415 -43L367 -145L308 -117L357 -12Q312 21 287 79T262 218Q262 285 280 336T329 423T404 475T500 493Q545 493 585 479L628 571L688 544L643 448Q688 414 713 357T738 218Z" />
<glyph unicode="&#xfe;" horiz-adv-x="1000" d="M602 218Q602 305 569 347T477 390Q427 390 396 359V76Q427 46 477 46Q536 46 569 88T602 218ZM715 218Q715 150 697 99T648 13T573 -39T477 -57Q428 -57 396 -40V-144H284V676H396V476Q428 493 477 493Q529 493
572 476T647 423T697 337T715 218Z" />
<glyph unicode="&#x2013;" horiz-adv-x="1000" d="M648 264H352V360H648V264Z" />
<glyph unicode="&#x2014;" horiz-adv-x="1000" d="M932 267H68V357H932V267Z" />
<glyph unicode="&#x2018;" horiz-adv-x="1000" d="M500 487Q473 487 455 510T435 563Q432 600 439 626T463 678Q478 701 499 718T546 740Q559 746 559 735V696Q559 688 558 686T553 681Q535 673 523 658T509 622Q530 617 548 602T567 559Q567 527 549 507T500 487Z" />
<glyph unicode="&#x2019;" horiz-adv-x="1000" d="M498 738Q526 738 544 715T564 662Q567 625 560 599T535 547Q520 524 499 507T452 485Q439 479 439 490V529Q439 537 440 539T446 544Q463 552 475 567T489 603Q468 608 450 623T432 666Q432 698 450 718T498 738Z" />
<glyph unicode="&#x201c;" horiz-adv-x="1000" d="M424 487Q397 487 379 510T358 563Q355 600 362 626T387 678Q401 701 422 718T469 740Q483 746 483 735V696Q483 688 482 686T477 681Q438 664 433 622Q453 617 472 602T491 559Q491 527 472 507T424 487ZM578
487Q550 487 532 510T511 563Q508 600 516 626T541 678Q555 701 576 718T623 740Q637 746 637 735V696Q637 688 636 686T630 681Q612 673 600 658T587 622Q607 617 625 602T644 559Q644 527 626 507T578 487Z" />
<glyph unicode="&#x201d;" horiz-adv-x="1000" d="M575 738Q602 738 620 715T642 662Q645 625 637 599T612 547Q598 524 577 507T530 485Q516 479 516 490V529Q516 537 517 539T523 544Q541 552 553 567T566 603Q546 608 528 623T509 666Q509 698 527 718T575
738ZM422 738Q449 738 467 715T488 662Q491 625 484 599T459 547Q445 524 424 507T377 485Q363 479 363 490V529Q363 537 364 539T369 544Q388 552 400 567T413 603Q393 608 374 623T355 666Q355 698 374 718T422 738Z" />
<glyph unicode="&#x2022;" horiz-adv-x="1000" d="M611 305Q611 282 602 262T578 227T543 204T500 195Q477 195 457 203T422 227T398 262T389 305Q389 328 398 348T422 383T457 407T500 416Q523 416 543 407T578 383T602 348T611 305Z" />
<glyph unicode="&#x2039;" horiz-adv-x="1000" d="M853 -133L146 300L853 732V696L215 300L853 -95V-133Z" />
<glyph unicode="&#x203a;" horiz-adv-x="1000" d="M853 300L146 -133V-95L784 300L146 696V732L853 300Z" />
</font>
</defs>
</svg>
